<svg viewBox="0 0 1024 1024" xmlns="http://www.w3.org/2000/svg"><path d="M725.333 768A85.038 85.038 0 0 0 640 853.333a85.333 85.333 0 0 0 85.333 85.334 85.333 85.333 0 0 0 85.334-85.334A85.333 85.333 0 0 0 725.333 768M42.667 85.333v85.334H128l153.6 323.84-58.027 104.533c-6.4 11.947-10.24 26.027-10.24 40.96a85.333 85.333 0 0 0 85.334 85.333h512V640h-494.08a10.667 10.667 0 0 1-10.667-10.667c0-2.133.427-3.84 1.28-5.12l38.4-69.546h317.867c32 0 60.16-17.92 74.666-43.947L890.88 234.667c2.987-6.827 5.12-14.08 5.12-21.334a42.667 42.667 0 0 0-42.667-42.666h-631.04l-40.106-85.334M298.667 768a85.038 85.038 0 0 0-85.334 85.333 85.333 85.333 0 0 0 85.334 85.334A85.333 85.333 0 0 0 384 853.333 85.333 85.333 0 0 0 298.667 768z"/></svg>