<svg viewBox="0 0 1024 1024" xmlns="http://www.w3.org/2000/svg"><path d="M725.333 384H298.667v-85.333h426.666m0 256H298.667v-85.334h426.666m-128 256H298.667V640h298.666M512 128c23.467 0 42.667 19.2 42.667 42.667 0 23.466-19.2 42.666-42.667 42.666-23.467 0-42.667-19.2-42.667-42.666C469.333 147.2 488.533 128 512 128m298.667 0H632.32C614.4 78.507 567.467 42.667 512 42.667S409.6 78.507 391.68 128H213.333C166.4 128 128 166.4 128 213.333v597.334C128 857.6 166.4 896 213.333 896h597.334C857.6 896 896 857.6 896 810.667V213.333C896 166.4 857.6 128 810.667 128z"/></svg>