<svg viewBox="0 0 1024 1024" xmlns="http://www.w3.org/2000/svg"><path d="M512 277.6c-129.714 0-234.4 104.686-234.4 234.4S382.286 746.4 512 746.4 746.4 641.714 746.4 512 641.714 277.6 512 277.6zm0 386.743c-83.886 0-152.343-68.457-152.343-152.343S428.114 359.657 512 359.657 664.343 428.114 664.343 512 595.886 664.343 512 664.343zM756 213.37c-30.286 0-54.743 24.458-54.743 54.743s24.457 54.743 54.743 54.743 54.743-24.343 54.743-54.743A54.674 54.674 0 0 0 756 213.371zM968.914 512c0-63.086.572-125.6-2.971-188.571-3.543-73.143-20.229-138.058-73.714-191.543-53.6-53.6-118.4-70.172-191.543-73.715C637.6 54.63 575.086 55.2 512.114 55.2c-63.085 0-125.6-.571-188.571 2.971C250.4 61.714 185.486 78.4 132 131.886c-53.6 53.6-70.171 118.4-73.714 191.543-3.543 63.085-2.972 125.6-2.972 188.571s-.571 125.6 2.972 188.571C61.829 773.714 78.514 838.63 132 892.114c53.6 53.6 118.4 70.172 191.543 73.715 63.086 3.542 125.6 2.971 188.571 2.971 63.086 0 125.6.571 188.572-2.971 73.143-3.543 138.057-20.229 191.543-73.715 53.6-53.6 70.171-118.4 73.714-191.543C969.6 637.6 968.914 575.086 968.914 512zM868.343 781.486c-8.343 20.8-18.4 36.343-34.514 52.343-16.115 16.114-31.543 26.171-52.343 34.514C721.37 892.229 578.629 886.857 512 886.857c-66.629 0-209.486 5.372-269.6-18.4-20.8-8.343-36.343-18.4-52.343-34.514-16.114-16.114-26.171-31.543-34.514-52.343-23.772-60.229-18.4-202.971-18.4-269.6 0-66.629-5.372-209.486 18.4-269.6 8.343-20.8 18.4-36.343 34.514-52.343s31.543-26.171 52.343-34.514c60.114-23.772 202.971-18.4 269.6-18.4s209.486-5.372 269.6 18.4c20.8 8.343 36.343 18.4 52.343 34.514 16.114 16.114 26.171 31.543 34.514 52.343 23.772 60.114 18.4 202.971 18.4 269.6 0 66.629 5.372 209.371-18.514 269.486z"/></svg>