<svg viewBox="0 0 1024 1024" xmlns="http://www.w3.org/2000/svg"><path d="M946.278 0c20.378 0 38.4 6.963 54.17 20.787C1016.115 34.714 1024 51.814 1024 72.192v876.954c0 20.377-7.885 37.478-23.552 51.302-15.77 13.824-33.792 20.787-54.17 20.787H74.957c-20.378 0-37.888-6.963-52.736-20.787C7.373 986.522 0 969.523 0 949.043V72.192C0 51.814 7.373 34.714 22.22 20.89S54.58 0 74.958 0h871.321zM227.533 316.314c24.064 0 44.851-8.704 62.464-26.42 17.613-17.612 26.419-38.4 26.419-62.464 0-23.961-8.806-44.85-26.42-62.464-17.612-17.408-38.4-26.214-62.463-26.214-24.064 0-44.851 8.806-62.464 26.317-17.613 17.613-26.42 38.4-26.42 62.464 0 25.907 8.295 47.206 24.986 63.795 16.794 16.691 37.99 24.986 63.898 24.986zm74.957 555.008V382.976H152.678v488.448H302.49zm568.832 0V602.214c0-73.932-12.493-130.867-37.479-170.7-24.883-39.732-72.601-59.7-142.848-59.7-70.349 0-118.374 25.908-144.281 77.722h-2.765v-66.56H399.565v488.448h149.811v-241.46c0-83.25 30.515-124.927 91.546-124.927 24.064 0 42.086 7.885 54.067 23.552 11.98 15.77 18.944 30.515 20.787 44.441s2.765 33.792 2.765 59.7v238.694h152.78z"/></svg>