<svg viewBox="0 0 1024 1024" xmlns="http://www.w3.org/2000/svg"><path d="M932.571 54.857H91.43C71.2 54.857 54.857 71.2 54.857 91.43V932.57c0 20.229 16.343 36.572 36.572 36.572H932.57c20.229 0 36.572-16.343 36.572-36.572V91.43c0-20.229-16.343-36.572-36.572-36.572zM758.057 385.943c.343 5.371.343 10.971.343 16.457 0 167.771-127.771 361.029-361.257 361.029-72 0-138.743-20.915-194.972-56.915 10.286 1.143 20.115 1.6 30.629 1.6 59.429 0 114.057-20.114 157.6-54.171-55.771-1.143-102.629-37.714-118.629-88 19.543 2.857 37.143 2.857 57.258-2.286a126.857 126.857 0 0 1-101.6-124.571v-1.6c16.8 9.485 36.571 15.314 57.257 16.114A127.006 127.006 0 0 1 228.114 348c0-23.657 6.172-45.257 17.257-64a360.32 360.32 0 0 0 261.715 132.686c-17.943-86.286 46.514-156.115 124-156.115 36.571 0 69.485 15.315 92.685 40 28.686-5.371 56.115-16.114 80.572-30.514a126.34 126.34 0 0 1-55.772 69.829c25.6-2.743 50.286-9.829 73.143-19.772-17.257 25.372-38.857 47.886-63.657 65.829z"/></svg>